<svg id="logo" xmlns="http://www.w3.org/2000/svg" viewBox="0 0 128.6 127.55"><defs><style>.cls-1{fill:#a41e22;}.cls-2{fill:#ed1c24;}.cls-3{fill:#659a41;}.cls-4{fill:#a7cf38;}.cls-5{fill:#136d9a;}.cls-6{fill:#2aace3;}</style></defs><title>skywind_circle</title><g id="logo-2" data-name="logo"><path class="cls-1" d="M174.87,110.74c30.73-9.09,54.51,13.58,56.4,48.42,4.53-31-7-54.82-20.61-66.18-6.44-.65-14.12-.88-20.57-1.53-3.49,4-11.73,15.24-15.22,19.28" transform="translate(-103.68 -74.28)"/><path class="cls-2" d="M227.82,119c-14-27.86-39.6-15.28-52.68-6.7-28.4,18.65-43.21-22.31-9.65-32.9,19.88-6.28,55.09,11.4,62.33,39.6" transform="translate(-103.68 -74.28)"/><path class="cls-3" d="M187.7,158.63c-6.84,30.94-38.46,40.49-70.24,25.23,25.27,18.94,51.94,20.57,68.62,14.29,3.7-5.25,7.62-11.77,11.33-17-1.89-5-7.81-17.52-9.7-22.49" transform="translate(-103.68 -74.28)"/><path class="cls-4" d="M154.74,200.35c31.48,1.41,32.74-26.79,31.47-42.24-2.75-33.56,40.71-26.5,33.83,7.62-4.07,20.21-36.81,42-65.3,34.63" transform="translate(-103.68 -74.28)"/><path class="cls-5" d="M138.26,146.46c-23-22.13-14.4-53.66,15.55-72.18-29.66,11.12-45.19,32.58-48.64,49.88,2.55,5.88,6.07,12.62,8.62,18.51,5.28,1,19.19,2.74,24.46,3.8" transform="translate(-103.68 -74.28)"/><path class="cls-6" d="M119.89,96.76c-17.89,25.61,5.66,41.61,19.61,48.74,30.29,15.48,1.19,48.13-24.47,24.29-15.2-14.12-16.61-53.1,4.86-73" transform="translate(-103.68 -74.28)"/></g></svg>