<?xml version="1.0" encoding="UTF-8"?> <svg xmlns="http://www.w3.org/2000/svg" viewBox="0 0 186.504 44.995"><g><path d="M175.458 12.952h3.539v12.924h7.507v3.231h-11.046zm-6.49 16.155h3.538V12.952h-3.538zm-15.4-2.461a10.21 10.21 0 006.825 2.584c3.47 0 5.906-1.8 5.906-5.007v-.046c0-2.816-1.838-3.992-5.1-4.847-2.779-.715-3.47-1.062-3.47-2.122v-.046c0-.786.712-1.408 2.068-1.408a7.523 7.523 0 014.182 1.592l1.838-2.677a9.287 9.287 0 00-5.974-2.054c-3.287 0-5.631 1.939-5.631 4.87v.046c0 3.208 2.092 4.107 5.331 4.939 2.689.692 3.241 1.153 3.241 2.053v.046c0 .946-.873 1.523-2.322 1.523a7.36 7.36 0 01-4.8-1.962l-2.092 2.516m-.724 2.519l-6.895-16.27h-3.263l-6.895 16.27h3.609l4.871-12 2.116 5.212h-2.84l-1.257 3.125h5.366l1.487 3.664zm-42.351-16.213c5.056 0 8.549 3.485 8.549 8.031v.046c0 4.546-3.493 8.077-8.549 8.077h-5.527V12.952h5.528m4.849 8.077a4.631 4.631 0 00-4.849-4.87h-1.99v9.74h1.99a4.594 4.594 0 004.849-4.823zm-18.28-.333v2.78h1.667v1.707a5.626 5.626 0 01-3.332.969 4.83 4.83 0 01-4.871-5.123v-.046a4.844 4.844 0 014.619-5.031 5.907 5.907 0 014.205 1.638l2.229-2.7a8.81 8.81 0 00-6.32-2.215 8.274 8.274 0 00-8.433 8.354v.046a8.067 8.067 0 008.457 8.307 10.416 10.416 0 006.871-2.561v-6.126zm-17.67 0v2.78h1.667v1.707a5.626 5.626 0 01-3.332.969 4.83 4.83 0 01-4.871-5.123v-.046a4.844 4.844 0 014.619-5.031 5.911 5.911 0 014.205 1.638l2.229-2.7a8.811 8.811 0 00-6.32-2.215 8.273 8.273 0 00-8.433 8.354v.046a8.067 8.067 0 008.457 8.307 10.419 10.419 0 006.871-2.561v-6.126zm-19.572 8.41h3.539v-5.212l6.181-10.943h-4.021l-3.907 7.188-3.837-7.188h-4.137l6.182 11.012zm70.937-5.77a5.015 5.015 0 003.448-5.007v-.046a5.083 5.083 0 00-1.379-3.692 6.394 6.394 0 00-4.689-1.639h-6.822v16.155h3.539V16.16h2.984c1.724 0 2.781.786 2.781 2.308v.046c0 1.361-.989 2.285-2.713 2.285h-1.741v3.139h.94l3.447 5.169h4.137z" fill="#191919"></path><path d="M45.101 23.81a22.418 22.418 0 01-.969 5.291 31.892 31.892 0 01-21.58-10.257A31.892 31.892 0 01.976 29.102a22.657 22.657 0 01-.973-5.291 26.579 26.579 0 008.161-1.589 23.3 23.3 0 00-7.769-4.263 22.475 22.475 0 011.661-5.069 28.674 28.674 0 0111.251 6.794 26.773 26.773 0 005.182-4.3A23.534 23.534 0 015.119 8.03a22.449 22.449 0 013.853-3.691 18.25 18.25 0 007.532 5.034 31.733 31.733 0 01-2.138-8.031A22.675 22.675 0 0119.578.006a26.486 26.486 0 002.974 9.7 26.484 26.484 0 002.975-9.707 22.413 22.413 0 015.212 1.338 31.81 31.81 0 01-2.138 8.034 18.281 18.281 0 007.528-5.029 22.537 22.537 0 013.859 3.682 23.542 23.542 0 01-13.374 7.357 26.823 26.823 0 005.184 4.3 28.674 28.674 0 0111.251-6.794 22.74 22.74 0 011.655 5.07 23.3 23.3 0 00-7.762 4.262 26.587 26.587 0 008.159 1.591zM25.216 44.836v-7.582l7.66-9.986a32.954 32.954 0 01-4.748-2.573l-5.578 7.273-5.578-7.273a32.885 32.885 0 01-4.748 2.573l7.659 9.986v7.586a22.691 22.691 0 005.332-.004z" fill="#fa6432"></path></g></svg> 